<mxfile host="app.diagrams.net" agent="Mozilla/5.0 (Windows NT 10.0; Win64; x64; rv:131.0) Gecko/20100101 Firefox/131.0" version="24.8.2">
  <diagram name="Page-1" id="9w28fsDBYe2TFZn61FKc">
    <mxGraphModel dx="2163" dy="1821" grid="1" gridSize="10" guides="1" tooltips="1" connect="1" arrows="1" fold="1" page="1" pageScale="1" pageWidth="850" pageHeight="1100" math="0" shadow="0">
      <root>
        <mxCell id="0" />
        <mxCell id="1" parent="0" />
        <mxCell id="L40QEeEeSPDppebi08FK-4" value="Household" style="swimlane;whiteSpace=wrap;html=1;" vertex="1" parent="1">
          <mxGeometry x="40" y="10" width="210" height="200" as="geometry" />
        </mxCell>
        <mxCell id="L40QEeEeSPDppebi08FK-12" value="&lt;div&gt;getHouseholdIncome(): double&lt;/div&gt;&lt;div&gt;getAddress(): String&lt;/div&gt;&lt;div&gt;getTotalValue(): double&lt;/div&gt;&lt;div&gt;getPeopleNames(): String&lt;/div&gt;&lt;div&gt;getChildren(): Child[]&lt;/div&gt;&lt;div&gt;getAdults: Adult[]&lt;br&gt;&lt;/div&gt;" style="whiteSpace=wrap;html=1;" vertex="1" parent="L40QEeEeSPDppebi08FK-4">
          <mxGeometry y="90" width="210" height="110" as="geometry" />
        </mxCell>
        <mxCell id="L40QEeEeSPDppebi08FK-5" value="&lt;div&gt;children: Child[]&lt;/div&gt;&lt;div&gt;adults: Adult[]&lt;br&gt;&lt;/div&gt;&lt;div&gt;address: Address&lt;/div&gt;&lt;div&gt;housePrice: double&lt;br&gt;&lt;/div&gt;" style="whiteSpace=wrap;html=1;" vertex="1" parent="L40QEeEeSPDppebi08FK-4">
          <mxGeometry y="20" width="210" height="70" as="geometry" />
        </mxCell>
        <mxCell id="L40QEeEeSPDppebi08FK-6" value="" style="endArrow=classic;html=1;rounded=0;exitX=0.5;exitY=0;exitDx=0;exitDy=0;entryX=0.5;entryY=1;entryDx=0;entryDy=0;" edge="1" parent="1" source="L40QEeEeSPDppebi08FK-4" target="L40QEeEeSPDppebi08FK-13">
          <mxGeometry relative="1" as="geometry">
            <mxPoint x="330" y="380" as="sourcePoint" />
            <mxPoint x="310" y="380" as="targetPoint" />
            <Array as="points" />
          </mxGeometry>
        </mxCell>
        <mxCell id="L40QEeEeSPDppebi08FK-7" value="Has" style="edgeLabel;resizable=0;html=1;;align=center;verticalAlign=middle;" connectable="0" vertex="1" parent="L40QEeEeSPDppebi08FK-6">
          <mxGeometry relative="1" as="geometry" />
        </mxCell>
        <mxCell id="L40QEeEeSPDppebi08FK-13" value="Adult" style="swimlane;whiteSpace=wrap;html=1;startSize=23;" vertex="1" parent="1">
          <mxGeometry x="45" y="-250" width="200" height="220" as="geometry" />
        </mxCell>
        <mxCell id="L40QEeEeSPDppebi08FK-14" value="&lt;div&gt;getIncome(): double&lt;/div&gt;&lt;div&gt;getNetWorth(): double&lt;/div&gt;" style="whiteSpace=wrap;html=1;" vertex="1" parent="L40QEeEeSPDppebi08FK-13">
          <mxGeometry y="110" width="200" height="110" as="geometry" />
        </mxCell>
        <mxCell id="L40QEeEeSPDppebi08FK-15" value="&lt;div&gt;income: double&lt;/div&gt;&lt;div&gt;netWorth: double&lt;/div&gt;" style="whiteSpace=wrap;html=1;" vertex="1" parent="L40QEeEeSPDppebi08FK-13">
          <mxGeometry y="20" width="200" height="90" as="geometry" />
        </mxCell>
        <mxCell id="L40QEeEeSPDppebi08FK-17" value="Date" style="swimlane;whiteSpace=wrap;html=1;" vertex="1" parent="1">
          <mxGeometry x="600" y="-70" width="200" height="110" as="geometry" />
        </mxCell>
        <mxCell id="L40QEeEeSPDppebi08FK-19" value="&lt;div&gt;Day: int&lt;/div&gt;&lt;div&gt;Month: int&lt;/div&gt;&lt;div&gt;Year: int&lt;br&gt;&lt;/div&gt;" style="whiteSpace=wrap;html=1;" vertex="1" parent="L40QEeEeSPDppebi08FK-17">
          <mxGeometry y="20" width="200" height="50" as="geometry" />
        </mxCell>
        <mxCell id="L40QEeEeSPDppebi08FK-28" value="getString(): String" style="whiteSpace=wrap;html=1;" vertex="1" parent="L40QEeEeSPDppebi08FK-17">
          <mxGeometry y="70" width="200" height="40" as="geometry" />
        </mxCell>
        <mxCell id="L40QEeEeSPDppebi08FK-23" value="" style="endArrow=classic;html=1;rounded=0;exitX=1;exitY=0.25;exitDx=0;exitDy=0;entryX=0.5;entryY=0;entryDx=0;entryDy=0;" edge="1" parent="1" source="L40QEeEeSPDppebi08FK-25" target="L40QEeEeSPDppebi08FK-17">
          <mxGeometry relative="1" as="geometry">
            <mxPoint x="410" y="370" as="sourcePoint" />
            <mxPoint x="680" y="160" as="targetPoint" />
            <Array as="points">
              <mxPoint x="700" y="-195" />
            </Array>
          </mxGeometry>
        </mxCell>
        <mxCell id="L40QEeEeSPDppebi08FK-24" value="Has" style="edgeLabel;resizable=0;html=1;;align=center;verticalAlign=middle;" connectable="0" vertex="1" parent="L40QEeEeSPDppebi08FK-23">
          <mxGeometry relative="1" as="geometry" />
        </mxCell>
        <mxCell id="L40QEeEeSPDppebi08FK-25" value="Person" style="swimlane;whiteSpace=wrap;html=1;startSize=23;" vertex="1" parent="1">
          <mxGeometry x="300" y="-250" width="200" height="220" as="geometry" />
        </mxCell>
        <mxCell id="L40QEeEeSPDppebi08FK-26" value="&lt;div&gt;getIncome(): double&lt;/div&gt;&lt;div&gt;getName(): String&lt;/div&gt;&lt;div&gt;getBirthday(): String&lt;/div&gt;&lt;div&gt;getAge(): int&lt;/div&gt;&lt;div&gt;changeCitizenshipStatus(): void&lt;br&gt;&lt;/div&gt;" style="whiteSpace=wrap;html=1;" vertex="1" parent="L40QEeEeSPDppebi08FK-25">
          <mxGeometry y="110" width="200" height="110" as="geometry" />
        </mxCell>
        <mxCell id="L40QEeEeSPDppebi08FK-27" value="&lt;div&gt;age: int&lt;/div&gt;&lt;div&gt;firstName: String&lt;/div&gt;&lt;div&gt;lastName: String&lt;/div&gt;&lt;div&gt;income: double&lt;/div&gt;&lt;div&gt;birthday: Date&lt;/div&gt;&lt;div&gt;canadianCitizen: Boolean&lt;/div&gt;&lt;div&gt;&lt;br&gt;&lt;/div&gt;" style="whiteSpace=wrap;html=1;" vertex="1" parent="L40QEeEeSPDppebi08FK-25">
          <mxGeometry y="20" width="200" height="100" as="geometry" />
        </mxCell>
        <mxCell id="L40QEeEeSPDppebi08FK-30" value="" style="endArrow=classic;html=1;rounded=0;entryX=0;entryY=0.25;entryDx=0;entryDy=0;exitX=1;exitY=0.25;exitDx=0;exitDy=0;" edge="1" parent="1" source="L40QEeEeSPDppebi08FK-14" target="L40QEeEeSPDppebi08FK-26">
          <mxGeometry relative="1" as="geometry">
            <mxPoint x="500" y="390" as="sourcePoint" />
            <mxPoint x="600" y="390" as="targetPoint" />
          </mxGeometry>
        </mxCell>
        <mxCell id="L40QEeEeSPDppebi08FK-31" value="Extends" style="edgeLabel;resizable=0;html=1;;align=center;verticalAlign=middle;" connectable="0" vertex="1" parent="L40QEeEeSPDppebi08FK-30">
          <mxGeometry relative="1" as="geometry" />
        </mxCell>
        <mxCell id="L40QEeEeSPDppebi08FK-36" value="Child" style="swimlane;whiteSpace=wrap;html=1;startSize=23;" vertex="1" parent="1">
          <mxGeometry x="300" y="10" width="200" height="170" as="geometry" />
        </mxCell>
        <mxCell id="L40QEeEeSPDppebi08FK-37" value="transferSchool(): void" style="whiteSpace=wrap;html=1;" vertex="1" parent="L40QEeEeSPDppebi08FK-36">
          <mxGeometry y="110" width="200" height="60" as="geometry" />
        </mxCell>
        <mxCell id="L40QEeEeSPDppebi08FK-38" value="school: Address" style="whiteSpace=wrap;html=1;" vertex="1" parent="L40QEeEeSPDppebi08FK-36">
          <mxGeometry y="20" width="200" height="90" as="geometry" />
        </mxCell>
        <mxCell id="L40QEeEeSPDppebi08FK-40" value="" style="endArrow=classic;html=1;rounded=0;entryX=0.5;entryY=1;entryDx=0;entryDy=0;exitX=0.5;exitY=0;exitDx=0;exitDy=0;" edge="1" parent="1" source="L40QEeEeSPDppebi08FK-36" target="L40QEeEeSPDppebi08FK-25">
          <mxGeometry relative="1" as="geometry">
            <mxPoint x="520" y="398" as="sourcePoint" />
            <mxPoint x="590" y="398" as="targetPoint" />
          </mxGeometry>
        </mxCell>
        <mxCell id="L40QEeEeSPDppebi08FK-41" value="Extends" style="edgeLabel;resizable=0;html=1;;align=center;verticalAlign=middle;" connectable="0" vertex="1" parent="L40QEeEeSPDppebi08FK-40">
          <mxGeometry relative="1" as="geometry" />
        </mxCell>
        <mxCell id="L40QEeEeSPDppebi08FK-49" value="Address" style="swimlane;whiteSpace=wrap;html=1;startSize=23;" vertex="1" parent="1">
          <mxGeometry x="-160" y="-470" width="200" height="220" as="geometry" />
        </mxCell>
        <mxCell id="L40QEeEeSPDppebi08FK-50" value="&lt;div&gt;getProvince(): String&lt;/div&gt;&lt;div&gt;getCity(): String&lt;/div&gt;&lt;div&gt;getStreet(): String&lt;/div&gt;&lt;div&gt;getNumber(): String&lt;/div&gt;&lt;div&gt;toString(): String&lt;br&gt;&lt;/div&gt;" style="whiteSpace=wrap;html=1;" vertex="1" parent="L40QEeEeSPDppebi08FK-49">
          <mxGeometry y="110" width="200" height="110" as="geometry" />
        </mxCell>
        <mxCell id="L40QEeEeSPDppebi08FK-51" value="&lt;div&gt;province: String&lt;/div&gt;&lt;div&gt;city: String&lt;/div&gt;&lt;div&gt;street: String&lt;/div&gt;&lt;div&gt;number: int&lt;br&gt;&lt;/div&gt;" style="whiteSpace=wrap;html=1;" vertex="1" parent="L40QEeEeSPDppebi08FK-49">
          <mxGeometry y="20" width="200" height="90" as="geometry" />
        </mxCell>
        <mxCell id="L40QEeEeSPDppebi08FK-59" value="" style="endArrow=classic;html=1;rounded=0;entryX=0;entryY=0.5;entryDx=0;entryDy=0;" edge="1" parent="1" source="L40QEeEeSPDppebi08FK-12" target="L40QEeEeSPDppebi08FK-37">
          <mxGeometry relative="1" as="geometry">
            <mxPoint x="260" y="150" as="sourcePoint" />
            <mxPoint x="420" y="260" as="targetPoint" />
            <Array as="points" />
          </mxGeometry>
        </mxCell>
        <mxCell id="L40QEeEeSPDppebi08FK-60" value="Has" style="edgeLabel;resizable=0;html=1;;align=center;verticalAlign=middle;" connectable="0" vertex="1" parent="L40QEeEeSPDppebi08FK-59">
          <mxGeometry relative="1" as="geometry" />
        </mxCell>
        <mxCell id="L40QEeEeSPDppebi08FK-62" value="" style="endArrow=classic;html=1;rounded=0;entryX=1;entryY=0.5;entryDx=0;entryDy=0;exitX=0.5;exitY=0;exitDx=0;exitDy=0;" edge="1" parent="1" source="L40QEeEeSPDppebi08FK-25" target="L40QEeEeSPDppebi08FK-49">
          <mxGeometry relative="1" as="geometry">
            <mxPoint x="400" y="-360" as="sourcePoint" />
            <mxPoint x="690" y="60" as="targetPoint" />
            <Array as="points">
              <mxPoint x="400" y="-360" />
            </Array>
          </mxGeometry>
        </mxCell>
        <mxCell id="L40QEeEeSPDppebi08FK-63" value="Has" style="edgeLabel;resizable=0;html=1;;align=center;verticalAlign=middle;" connectable="0" vertex="1" parent="L40QEeEeSPDppebi08FK-62">
          <mxGeometry relative="1" as="geometry" />
        </mxCell>
        <mxCell id="L40QEeEeSPDppebi08FK-64" value="" style="endArrow=classic;html=1;rounded=0;exitX=0;exitY=0.25;exitDx=0;exitDy=0;entryX=0.5;entryY=1;entryDx=0;entryDy=0;" edge="1" parent="1" source="L40QEeEeSPDppebi08FK-12" target="L40QEeEeSPDppebi08FK-49">
          <mxGeometry relative="1" as="geometry">
            <mxPoint x="20" y="100" as="sourcePoint" />
            <mxPoint x="-370" y="-50" as="targetPoint" />
            <Array as="points">
              <mxPoint x="-60" y="128" />
            </Array>
          </mxGeometry>
        </mxCell>
        <mxCell id="L40QEeEeSPDppebi08FK-65" value="Has" style="edgeLabel;resizable=0;html=1;;align=center;verticalAlign=middle;" connectable="0" vertex="1" parent="L40QEeEeSPDppebi08FK-64">
          <mxGeometry relative="1" as="geometry" />
        </mxCell>
      </root>
    </mxGraphModel>
  </diagram>
</mxfile>
